<svg width="221" height="33" viewBox="0 0 221 33" fill="none" xmlns="http://www.w3.org/2000/svg">
<g clip-path="url(#clip0_91_75)">
<path d="M90.0472 0.000838121H8.25252C7.95437 0.000838121 7.65979 0.000838121 7.36243 0.00246426C7.11351 0.00409039 6.86657 0.00881431 6.61526 0.0127902C6.0693 0.0192149 5.52462 0.0672464 4.98596 0.156467C4.44805 0.247631 3.927 0.419499 3.44041 0.66626C2.95443 0.915109 2.51037 1.23846 2.12434 1.62459C1.73629 2.00963 1.41282 2.45469 1.16637 2.94265C0.919238 3.42963 0.747876 3.95148 0.658203 4.49017C0.567677 5.02818 0.518964 5.5724 0.512501 6.11793C0.504956 6.36722 0.504159 6.61733 0.500183 6.86665V25.6601C0.504159 25.9126 0.504956 26.1571 0.512501 26.4097C0.518966 26.9552 0.567679 27.4994 0.658203 28.0373C0.747629 28.5764 0.919001 29.0985 1.16637 29.5857C1.41271 30.072 1.73622 30.5153 2.12434 30.8982C2.5089 31.286 2.95325 31.6096 3.44041 31.8566C3.92699 32.104 4.44799 32.2769 4.98596 32.3694C5.52471 32.458 6.06933 32.506 6.61526 32.5132C6.86657 32.5187 7.11351 32.5219 7.36243 32.5219C7.65978 32.5235 7.95438 32.5235 8.25252 32.5235H90.0472C90.3394 32.5235 90.6363 32.5235 90.9285 32.5219C91.1763 32.5219 91.4303 32.5187 91.6781 32.5132C92.223 32.5064 92.7666 32.4583 93.3042 32.3694C93.8439 32.2762 94.3668 32.1034 94.8557 31.8566C95.3424 31.6095 95.7864 31.2859 96.1706 30.8982C96.5577 30.5138 96.8819 30.0709 97.1313 29.5857C97.3768 29.0981 97.5466 28.576 97.6347 28.0373C97.7254 27.4993 97.7758 26.9552 97.7856 26.4097C97.7888 26.1571 97.7888 25.9126 97.7888 25.6601C97.7951 25.3647 97.7951 25.071 97.7951 24.7708V7.75435C97.7951 7.4566 97.7951 7.16123 97.7888 6.86665C97.7888 6.61733 97.7888 6.36722 97.7856 6.1179C97.7758 5.57232 97.7254 5.02822 97.6347 4.49014C97.5463 3.95176 97.3766 3.42995 97.1313 2.94261C96.6294 1.96455 95.8336 1.16842 94.8557 0.666187C94.3668 0.420029 93.8439 0.248206 93.3042 0.156394C92.7667 0.0667801 92.223 0.0187319 91.6781 0.0126764C91.4303 0.00870861 91.1763 0.00394404 90.9285 0.00235856C90.6363 0.000732422 90.3394 0.000732422 90.0472 0.000732422V0.000838121Z" fill="black"/>
<path d="M7.3666 31.8149C7.11888 31.8149 6.87714 31.8117 6.63136 31.8062C6.1222 31.7996 5.61423 31.7552 5.11162 31.6736C4.64296 31.5929 4.18895 31.4427 3.76458 31.2281C3.34409 31.0153 2.96058 30.7362 2.62872 30.4016C2.29206 30.0709 2.01178 29.6873 1.79898 29.2661C1.58383 28.8422 1.43494 28.3877 1.35748 27.9187C1.27384 27.4147 1.22858 26.9051 1.22211 26.3942C1.21695 26.2227 1.21021 25.6518 1.21021 25.6518V6.86947C1.21021 6.86947 1.21739 6.30731 1.22215 6.14215C1.22835 5.6321 1.27334 5.12326 1.35674 4.62003C1.43433 4.14969 1.58334 3.69396 1.79861 3.26863C2.01062 2.84772 2.28935 2.46388 2.62398 2.132C2.95824 1.79697 3.34298 1.51645 3.76418 1.30067C4.18758 1.08674 4.64073 0.937651 5.10844 0.858407C5.6127 0.775935 6.12243 0.731346 6.63336 0.725015L7.367 0.715088H90.9247L91.6672 0.725414C92.1734 0.73143 92.6785 0.775621 93.1782 0.85761C93.6506 0.937848 94.1085 1.08797 94.5367 1.30305C95.3805 1.73792 96.0671 2.42591 96.5003 3.27062C96.7121 3.69301 96.8588 4.14502 96.9354 4.6113C97.0198 5.11865 97.067 5.63149 97.0767 6.14573C97.0791 6.37599 97.0791 6.62332 97.0791 6.86947C97.0855 7.17437 97.0855 7.46458 97.0855 7.75717V24.7736C97.0855 25.069 97.0855 25.3572 97.0791 25.6478C97.0791 25.9122 97.0791 26.1544 97.0759 26.4037C97.0664 26.9088 97.02 27.4124 96.937 27.9107C96.8611 28.3832 96.713 28.8411 96.4979 29.2685C96.2836 29.6852 96.0049 30.0654 95.6722 30.3952C95.34 30.7316 94.9558 31.0124 94.5344 31.2266C94.1073 31.4428 93.6501 31.5935 93.1782 31.6736C92.6756 31.7557 92.1676 31.8 91.6584 31.8062C91.4202 31.8117 91.1709 31.8149 90.9287 31.8149L90.0474 31.8165L7.3666 31.8149Z" fill="white"/>
<path d="M20.8258 16.1787C20.8349 15.473 21.0224 14.781 21.3707 14.1672C21.7191 13.5534 22.2171 13.0377 22.8183 12.6681C22.4364 12.1226 21.9325 11.6737 21.3467 11.357C20.7609 11.0403 20.1094 10.8646 19.4438 10.8438C18.024 10.6947 16.6475 11.6934 15.924 11.6934C15.1865 11.6934 14.0725 10.8586 12.873 10.8833C12.0971 10.9083 11.3409 11.1339 10.6782 11.5381C10.0154 11.9423 9.46861 12.5113 9.09112 13.1897C7.45595 16.0208 8.67564 20.1816 10.242 22.47C11.0257 23.5906 11.9416 24.8423 13.1401 24.798C14.3129 24.7493 14.7509 24.0501 16.1665 24.0501C17.569 24.0501 17.9799 24.798 19.2027 24.7697C20.4612 24.7493 21.254 23.6442 22.0102 22.513C22.5733 21.7145 23.0066 20.832 23.2941 19.8982C22.563 19.589 21.939 19.0714 21.5001 18.41C21.0612 17.7485 20.8267 16.9725 20.8258 16.1787Z" fill="black"/>
<path d="M18.5163 9.33867C19.2024 8.51498 19.5405 7.45625 19.4586 6.38733C18.4103 6.49743 17.442 6.99844 16.7466 7.79054C16.4066 8.1775 16.1462 8.62767 15.9802 9.11534C15.8143 9.603 15.7461 10.1186 15.7796 10.6326C16.3039 10.638 16.8226 10.5244 17.2967 10.3002C17.7707 10.0761 18.1877 9.74733 18.5163 9.33867Z" fill="black"/>
<path d="M34.8948 22.067H31.0462L30.122 24.796H28.4919L32.1372 14.6993H33.8308L37.4761 24.796H35.8182L34.8948 22.067ZM31.4448 20.8077H34.4954L32.9916 16.3787H32.9495L31.4448 20.8077Z" fill="black"/>
<path d="M45.3491 21.1143C45.3491 23.4018 44.1247 24.8715 42.2771 24.8715C41.809 24.896 41.3435 24.7882 40.9339 24.5604C40.5243 24.3327 40.1871 23.9941 39.9609 23.5836H39.926V27.2297H38.415V17.4332H39.8775V18.6576H39.9053C40.1419 18.2491 40.4848 17.9123 40.8975 17.6831C41.3103 17.454 41.7774 17.341 42.2493 17.3562C44.1176 17.3562 45.3491 18.8331 45.3491 21.1143ZM43.796 21.1143C43.796 19.6239 43.0258 18.6441 41.8507 18.6441C40.6962 18.6441 39.9196 19.6446 39.9196 21.1143C39.9196 22.5975 40.6962 23.5908 41.8507 23.5908C43.0258 23.5908 43.796 22.6181 43.796 21.1143H43.796Z" fill="black"/>
<path d="M53.4509 21.1143C53.4509 23.4018 52.2262 24.8715 50.3785 24.8715C49.9105 24.896 49.445 24.7882 49.0354 24.5604C48.6257 24.3327 48.2885 23.9941 48.0624 23.5836H48.0274V27.2297H46.5164V17.4332H47.979V18.6576H48.0068C48.2433 18.2491 48.5862 17.9123 48.999 17.6831C49.4117 17.454 49.8789 17.341 50.3507 17.3562C52.219 17.3562 53.4509 18.8331 53.4509 21.1143ZM51.8975 21.1143C51.8975 19.6239 51.1273 18.6441 49.9521 18.6441C48.7976 18.6441 48.0211 19.6446 48.0211 21.1143C48.0211 22.5975 48.7976 23.5908 49.9521 23.5908C51.1273 23.5908 51.8975 22.6181 51.8975 21.1143Z" fill="black"/>
<path d="M58.8056 21.9827C58.9176 22.984 59.8903 23.6414 61.2194 23.6414C62.493 23.6414 63.4093 22.9839 63.4093 22.0811C63.4093 21.2974 62.8567 20.8282 61.5481 20.5066L60.2396 20.1914C58.3856 19.7436 57.5249 18.8765 57.5249 17.4695C57.5249 15.7275 59.043 14.5309 61.198 14.5309C63.3323 14.5309 64.7949 15.7275 64.8441 17.4695H63.3188C63.2275 16.4619 62.3945 15.8537 61.1773 15.8537C59.9601 15.8537 59.1272 16.4691 59.1272 17.3647C59.1272 18.0785 59.6592 18.4986 60.9606 18.8201L62.073 19.0932C64.1445 19.5832 65.0045 20.4153 65.0045 21.8921C65.0045 23.7811 63.5006 24.9642 61.1074 24.9642C58.8683 24.9642 57.3565 23.8089 57.2589 21.9826L58.8056 21.9827Z" fill="black"/>
<path d="M68.2673 15.6948V17.4369H69.6671V18.6335H68.2673V22.6916C68.2673 23.3221 68.5476 23.6159 69.1629 23.6159C69.3291 23.613 69.495 23.6013 69.66 23.5809V24.7703C69.3833 24.822 69.1021 24.8455 68.8207 24.8402C67.3304 24.8402 66.7492 24.2804 66.7492 22.8528V18.6335H65.6788V17.4369H66.7491V15.6948H68.2673Z" fill="black"/>
<path d="M70.4761 21.1173C70.4761 18.8011 71.8402 17.3457 73.9674 17.3457C76.1017 17.3457 77.4595 18.8011 77.4595 21.1173C77.4595 23.4397 76.1089 24.8888 73.9674 24.8888C71.8267 24.8888 70.4761 23.4397 70.4761 21.1173ZM75.9199 21.1173C75.9199 19.5284 75.1918 18.5907 73.9674 18.5907C72.743 18.5907 72.0149 19.5356 72.0149 21.1173C72.0149 22.7124 72.743 23.643 73.9674 23.643C75.1918 23.643 75.9199 22.7124 75.9199 21.1173H75.9199Z" fill="black"/>
<path d="M78.7055 17.4332H80.1466V18.6861H80.1815C80.2791 18.2948 80.5083 17.949 80.8307 17.7068C81.1532 17.4646 81.5492 17.3408 81.9522 17.3561C82.1263 17.3555 82.3 17.3744 82.4699 17.4125V18.8259C82.2501 18.7587 82.0207 18.7278 81.791 18.7345C81.5715 18.7256 81.3526 18.7643 81.1495 18.848C80.9463 18.9317 80.7637 19.0583 80.6141 19.2192C80.4646 19.3801 80.3516 19.5714 80.2829 19.7801C80.2143 19.9888 80.1916 20.2099 80.2165 20.4282V24.7944H78.7054L78.7055 17.4332Z" fill="black"/>
<path d="M89.4363 22.6354C89.233 23.9717 87.9316 24.8888 86.2666 24.8888C84.1251 24.8888 82.796 23.454 82.796 21.1522C82.796 18.8432 84.1323 17.3457 86.2031 17.3457C88.2397 17.3457 89.5204 18.7447 89.5204 20.9767V21.4944H84.3213V21.5857C84.2973 21.8566 84.3312 22.1296 84.4208 22.3864C84.5103 22.6432 84.6535 22.878 84.8408 23.0752C85.0281 23.2724 85.2552 23.4275 85.5071 23.5302C85.7589 23.6329 86.0297 23.6808 86.3015 23.6708C86.6586 23.7042 87.0169 23.6215 87.3232 23.435C87.6295 23.2484 87.8674 22.968 88.0015 22.6354L89.4363 22.6354ZM84.3284 20.4384H88.0086C88.0222 20.1948 87.9853 19.951 87.9002 19.7224C87.815 19.4937 87.6836 19.2852 87.5141 19.1097C87.3445 18.9343 87.1405 18.7958 86.9149 18.7029C86.6893 18.6101 86.447 18.5648 86.2031 18.5701C85.957 18.5686 85.7131 18.6159 85.4854 18.7092C85.2577 18.8025 85.0507 18.9399 84.8764 19.1136C84.7022 19.2873 84.564 19.4938 84.4699 19.7212C84.3759 19.9486 84.3278 20.1923 84.3284 20.4384V20.4384Z" fill="black"/>
<path d="M31.2557 7.09999C31.5725 7.07725 31.8903 7.12511 32.1864 7.24011C32.4824 7.3551 32.7493 7.53437 32.9676 7.76497C33.186 7.99558 33.3505 8.27178 33.4492 8.57364C33.5479 8.87551 33.5784 9.19553 33.5385 9.5106C33.5385 11.0605 32.7008 11.9514 31.2557 11.9514H29.5033V7.09999H31.2557ZM30.2568 11.2653H31.1715C31.3979 11.2789 31.6244 11.2417 31.8346 11.1567C32.0448 11.0716 32.2334 10.9408 32.3867 10.7736C32.5399 10.6065 32.654 10.4073 32.7206 10.1905C32.7871 9.97373 32.8045 9.74483 32.7714 9.52049C32.8021 9.29703 32.7829 9.06956 32.7154 8.85437C32.6478 8.63918 32.5334 8.4416 32.3805 8.27579C32.2276 8.10998 32.0399 7.98005 31.8309 7.8953C31.6219 7.81055 31.3967 7.77308 31.1715 7.78557H30.2568V11.2653Z" fill="black"/>
<path d="M34.3891 10.1183C34.3661 9.87766 34.3937 9.6349 34.47 9.40556C34.5463 9.17622 34.6696 8.96536 34.8322 8.7865C34.9948 8.60764 35.1929 8.46473 35.414 8.36694C35.635 8.26914 35.874 8.21863 36.1157 8.21863C36.3574 8.21863 36.5965 8.26914 36.8175 8.36694C37.0385 8.46473 37.2367 8.60764 37.3992 8.7865C37.5618 8.96536 37.6852 9.17622 37.7615 9.40556C37.8378 9.6349 37.8653 9.87766 37.8423 10.1183C37.8658 10.3591 37.8386 10.6022 37.7625 10.8319C37.6864 11.0616 37.5631 11.2729 37.4004 11.4521C37.2378 11.6313 37.0395 11.7745 36.8183 11.8725C36.597 11.9705 36.3577 12.0211 36.1157 12.0211C35.8737 12.0211 35.6344 11.9705 35.4132 11.8725C35.1919 11.7745 34.9936 11.6313 34.831 11.4521C34.6684 11.2729 34.5451 11.0616 34.469 10.8319C34.3929 10.6022 34.3657 10.3591 34.3891 10.1183ZM37.0991 10.1183C37.0991 9.32465 36.7426 8.86055 36.1169 8.86055C35.4889 8.86055 35.1355 9.32465 35.1355 10.1183C35.1355 10.9182 35.4889 11.3788 36.1169 11.3788C36.7426 11.3788 37.0991 10.9151 37.0991 10.1183H37.0991Z" fill="black"/>
<path d="M42.4321 11.9502H41.6826L40.9259 9.25378H40.8687L40.1152 11.9502H39.3728L38.3636 8.28906H39.0965L39.7523 11.0828H39.8063L40.559 8.28906H41.2522L42.0049 11.0828H42.0621L42.7148 8.28906H43.4373L42.4321 11.9502Z" fill="black"/>
<path d="M44.2872 8.28985H44.9828V8.87146H45.0368C45.1284 8.66257 45.2829 8.48746 45.4787 8.37053C45.6746 8.25361 45.902 8.2007 46.1293 8.21918C46.3075 8.20579 46.4864 8.23265 46.6527 8.29777C46.8191 8.36289 46.9686 8.46461 47.0903 8.59539C47.212 8.72617 47.3028 8.88265 47.3558 9.05325C47.4088 9.22384 47.4227 9.40418 47.3966 9.5809V11.951H46.674V9.76235C46.674 9.17399 46.4184 8.88139 45.884 8.88139C45.763 8.87576 45.6423 8.89634 45.5301 8.94174C45.4178 8.98713 45.3167 9.05626 45.2337 9.14438C45.1506 9.23251 45.0876 9.33754 45.049 9.45229C45.0103 9.56704 44.997 9.68879 45.0098 9.80919V11.951H44.2872L44.2872 8.28985Z" fill="black"/>
<path d="M48.5478 6.85864H49.2703V11.949H48.5478V6.85864Z" fill="black"/>
<path d="M50.2742 10.1183C50.2512 9.87771 50.2787 9.63494 50.3551 9.40559C50.4314 9.17624 50.5548 8.96537 50.7174 8.78651C50.8799 8.60764 51.0781 8.46473 51.2992 8.36694C51.5202 8.26914 51.7593 8.21863 52.001 8.21863C52.2427 8.21863 52.4817 8.26914 52.7028 8.36694C52.9238 8.46473 53.122 8.60764 53.2846 8.78651C53.4472 8.96537 53.5706 9.17624 53.6469 9.40559C53.7232 9.63494 53.7507 9.87771 53.7277 10.1183C53.7512 10.3592 53.724 10.6023 53.6478 10.832C53.5717 11.0617 53.4484 11.2729 53.2858 11.4522C53.1231 11.6314 52.9248 11.7746 52.7036 11.8726C52.4823 11.9706 52.243 12.0212 52.001 12.0212C51.759 12.0212 51.5197 11.9706 51.2984 11.8726C51.0771 11.7746 50.8788 11.6314 50.7162 11.4522C50.5536 11.2729 50.4302 11.0617 50.3541 10.832C50.278 10.6023 50.2508 10.3592 50.2742 10.1183ZM52.9842 10.1183C52.9842 9.32472 52.6276 8.86062 52.002 8.86062C51.3739 8.86062 51.0206 9.32472 51.0206 10.1183C51.0206 10.9183 51.3739 11.3788 52.002 11.3788C52.6276 11.3788 52.9842 10.9151 52.9842 10.1183H52.9842Z" fill="black"/>
<path d="M54.4891 10.9151C54.4891 10.2561 54.9798 9.87612 55.8508 9.82213L56.8425 9.76496V9.44895C56.8425 9.06226 56.5868 8.84391 56.093 8.84391C55.6896 8.84391 55.4101 8.99199 55.3299 9.25084H54.6304C54.7043 8.62198 55.2958 8.21863 56.1263 8.21863C57.0442 8.21863 57.5619 8.67557 57.5619 9.44895V11.9505H56.8663V11.436H56.8092C56.6931 11.6205 56.5302 11.771 56.337 11.872C56.1438 11.973 55.9272 12.0209 55.7095 12.0108C55.5558 12.0268 55.4004 12.0104 55.2535 11.9627C55.1065 11.9149 54.9712 11.8369 54.8562 11.7337C54.7412 11.6305 54.6491 11.5043 54.5859 11.3633C54.5227 11.2223 54.4897 11.0696 54.4891 10.9151ZM56.8425 10.6022V10.2962L55.9485 10.3533C55.4443 10.3871 55.2156 10.5586 55.2156 10.8813C55.2156 11.2108 55.5014 11.4026 55.8945 11.4026C56.0097 11.4143 56.126 11.4026 56.2366 11.3684C56.3472 11.3342 56.4497 11.2781 56.5382 11.2034C56.6266 11.1287 56.6992 11.037 56.7514 10.9337C56.8037 10.8305 56.8347 10.7177 56.8425 10.6022Z" fill="black"/>
<path d="M58.5115 10.1169C58.5115 8.96001 59.1062 8.22713 60.0312 8.22713C60.26 8.21659 60.4871 8.27139 60.6859 8.38514C60.8847 8.49888 61.0471 8.66686 61.1539 8.86946H61.2079V6.85864H61.9305V11.949H61.2381V11.3706H61.1809C61.0658 11.5718 60.8978 11.7377 60.6952 11.8503C60.4925 11.9629 60.2629 12.0179 60.0312 12.0094C59.0998 12.0094 58.5115 11.2765 58.5115 10.1169ZM59.2579 10.1169C59.2579 10.8934 59.6239 11.3607 60.2361 11.3607C60.8451 11.3607 61.2215 10.8867 61.2215 10.1201C61.2215 9.35701 60.8411 8.87624 60.2361 8.87624C59.6279 8.87624 59.2578 9.34668 59.2578 10.1169H59.2579Z" fill="black"/>
<path d="M64.9203 10.1183C64.8973 9.87766 64.9248 9.6349 65.0011 9.40556C65.0774 9.17622 65.2008 8.96536 65.3634 8.7865C65.526 8.60764 65.7241 8.46473 65.9451 8.36694C66.1662 8.26914 66.4052 8.21863 66.6469 8.21863C66.8886 8.21863 67.1276 8.26914 67.3487 8.36694C67.5697 8.46473 67.7679 8.60764 67.9304 8.7865C68.093 8.96536 68.2164 9.17622 68.2927 9.40556C68.369 9.6349 68.3965 9.87766 68.3735 10.1183C68.3969 10.3591 68.3697 10.6022 68.2937 10.8319C68.2176 11.0616 68.0942 11.2729 67.9316 11.4521C67.769 11.6313 67.5707 11.7745 67.3495 11.8725C67.1282 11.9705 66.8889 12.0211 66.6469 12.0211C66.4049 12.0211 66.1656 11.9705 65.9444 11.8725C65.7231 11.7745 65.5248 11.6313 65.3622 11.4521C65.1996 11.2729 65.0763 11.0616 65.0002 10.8319C64.9241 10.6022 64.8969 10.3591 64.9203 10.1183ZM67.6303 10.1183C67.6303 9.32465 67.2738 8.86055 66.6481 8.86055C66.02 8.86055 65.6667 9.32465 65.6667 10.1183C65.6667 10.9182 66.0201 11.3788 66.6481 11.3788C67.2738 11.3788 67.6303 10.9151 67.6303 10.1183Z" fill="black"/>
<path d="M69.3427 8.28985H70.0383V8.87146H70.0923C70.1839 8.66257 70.3383 8.48746 70.5342 8.37053C70.73 8.25361 70.9575 8.2007 71.1848 8.21918C71.363 8.20579 71.5418 8.23265 71.7082 8.29777C71.8745 8.36289 72.0241 8.46461 72.1458 8.59539C72.2675 8.72617 72.3582 8.88265 72.4112 9.05325C72.4643 9.22384 72.4782 9.40418 72.4521 9.5809V11.951H71.7295V9.76235C71.7295 9.17399 71.4738 8.88139 70.9395 8.88139C70.8185 8.87576 70.6978 8.89634 70.5855 8.94174C70.4733 8.98713 70.3722 9.05626 70.2891 9.14438C70.2061 9.23251 70.1431 9.33754 70.1045 9.45229C70.0658 9.56704 70.0525 9.68879 70.0653 9.80919V11.951H69.3427V8.28985Z" fill="black"/>
<path d="M76.535 7.37622V8.30442H77.3282V8.91303H76.535V10.7956C76.535 11.1791 76.693 11.3471 77.0527 11.3471C77.1447 11.3468 77.2367 11.3412 77.3282 11.3304V11.9323C77.1984 11.9555 77.067 11.9678 76.9351 11.9692C76.1316 11.9692 75.8116 11.6865 75.8116 10.9806V8.913H75.2304V8.30439H75.8116V7.37622H76.535Z" fill="black"/>
<path d="M78.3148 6.85864H79.031V8.87623H79.0881C79.1842 8.66538 79.3429 8.48928 79.5427 8.37192C79.7424 8.25455 79.9735 8.20163 80.2045 8.22038C80.3817 8.21073 80.5588 8.24032 80.7233 8.30702C80.8878 8.37373 81.0355 8.47591 81.1559 8.60628C81.2764 8.73664 81.3665 8.89198 81.42 9.06121C81.4735 9.23043 81.489 9.40938 81.4654 9.58528V11.9491H80.7421V9.76353C80.7421 9.17874 80.4697 8.88257 79.9592 8.88257C79.835 8.87239 79.7101 8.88946 79.5932 8.93259C79.4763 8.97573 79.3702 9.04389 79.2824 9.1323C79.1946 9.22071 79.1272 9.32724 79.0848 9.44443C79.0425 9.56163 79.0263 9.68665 79.0373 9.81077V11.949H78.3148L78.3148 6.85864Z" fill="black"/>
<path d="M85.6787 10.962C85.5805 11.2966 85.3678 11.586 85.0778 11.7797C84.7878 11.9733 84.4389 12.0588 84.0922 12.0212C83.851 12.0276 83.6113 11.9814 83.3898 11.8858C83.1682 11.7903 82.9701 11.6476 82.8092 11.4678C82.6483 11.288 82.5284 11.0754 82.4579 10.8446C82.3874 10.6138 82.368 10.3705 82.401 10.1315C82.3689 9.8917 82.3886 9.64784 82.459 9.41638C82.5293 9.18492 82.6485 8.97127 82.8086 8.7899C82.9686 8.60853 83.1658 8.46366 83.3867 8.36511C83.6076 8.26656 83.8472 8.21663 84.0891 8.21869C85.1078 8.21869 85.7223 8.91467 85.7223 10.0644V10.3165H83.137V10.357C83.1257 10.4913 83.1426 10.6266 83.1866 10.754C83.2306 10.8815 83.3008 10.9983 83.3926 11.0971C83.4844 11.1958 83.5958 11.2743 83.7197 11.3275C83.8436 11.3806 83.9773 11.4073 84.1121 11.4058C84.2849 11.4266 84.46 11.3955 84.6151 11.3164C84.7702 11.2374 84.8983 11.114 84.9831 10.962L85.6787 10.962ZM83.137 9.7821H84.9863C84.9954 9.65922 84.9787 9.5358 84.9372 9.41976C84.8958 9.30372 84.8306 9.19763 84.7457 9.10831C84.6608 9.01898 84.5582 8.94841 84.4444 8.90111C84.3307 8.8538 84.2082 8.83083 84.0851 8.83365C83.9601 8.83208 83.8361 8.85555 83.7203 8.90266C83.6046 8.94977 83.4994 9.01958 83.4111 9.10797C83.3227 9.19636 83.2529 9.30155 83.2059 9.41732C83.1588 9.5331 83.1354 9.65713 83.137 9.7821H83.137Z" fill="black"/>
</g>
<g clip-path="url(#clip1_91_75)">
<path d="M215.493 0.000732422H113.86C111.615 0.000732422 109.794 1.82085 109.794 4.06607V28.4581C109.794 30.7033 111.615 32.5234 113.86 32.5234H215.493C217.738 32.5234 219.559 30.7033 219.559 28.4581V4.06607C219.559 1.82085 217.738 0.000732422 215.493 0.000732422Z" fill="black"/>
<path d="M215.493 0.651186C216.399 0.651186 217.268 1.01097 217.908 1.65138C218.548 2.2918 218.908 3.16039 218.908 4.06607V28.4581C218.908 29.3638 218.548 30.2324 217.908 30.8728C217.268 31.5132 216.399 31.873 215.493 31.873H113.86C112.954 31.873 112.086 31.5132 111.445 30.8728C110.805 30.2324 110.445 29.3638 110.445 28.4581V4.06607C110.445 3.16039 110.805 2.2918 111.445 1.65138C112.086 1.01097 112.954 0.651186 113.86 0.651186H215.493ZM215.493 0.000732422H113.86C112.782 0.000732422 111.748 0.429043 110.985 1.19144C110.223 1.95384 109.794 2.98787 109.794 4.06607V28.4581C109.794 29.5363 110.223 30.5703 110.985 31.3327C111.748 32.0951 112.782 32.5234 113.86 32.5234H215.493C216.571 32.5234 217.605 32.0951 218.368 31.3327C219.13 30.5703 219.559 29.5363 219.559 28.4581V4.06607C219.559 2.98787 219.13 1.95384 218.368 1.19144C217.605 0.429043 216.571 0.000732422 215.493 0.000732422Z" fill="#A6A6A6"/>
<path d="M148.35 8.32528C148.364 8.62351 148.317 8.92143 148.213 9.20097C148.108 9.4805 147.947 9.73582 147.741 9.95142C147.51 10.1909 147.232 10.3792 146.923 10.5039C146.615 10.6285 146.284 10.6869 145.952 10.675C145.448 10.6711 144.956 10.5185 144.538 10.2363C144.121 9.95408 143.795 9.55488 143.604 9.08868C143.412 8.62249 143.362 8.11004 143.46 7.61555C143.558 7.12106 143.8 6.66652 144.155 6.30888C144.389 6.07047 144.669 5.88252 144.978 5.75666C145.287 5.63079 145.618 5.56968 145.952 5.57712C146.296 5.57597 146.636 5.64515 146.952 5.78038C147.246 5.89905 147.508 6.08574 147.716 6.32514L147.285 6.75606C147.123 6.56304 146.918 6.4104 146.687 6.31021C146.455 6.21002 146.204 6.16503 145.952 6.17879C145.698 6.17754 145.446 6.22759 145.212 6.32594C144.978 6.42429 144.766 6.56892 144.589 6.75114C144.412 6.93336 144.274 7.14943 144.183 7.38639C144.091 7.62335 144.049 7.87633 144.057 8.13015C144.052 8.50915 144.159 8.88123 144.365 9.19947C144.571 9.5177 144.867 9.76783 145.214 9.91829C145.562 10.0688 145.947 10.1128 146.32 10.0449C146.693 9.97701 147.037 9.80019 147.31 9.53675C147.56 9.26563 147.704 8.91354 147.716 8.54481H145.952V7.95941H148.318C148.34 8.08016 148.351 8.2026 148.35 8.32528ZM152.074 6.29262H149.879V7.83744H151.879V8.42285H149.879V9.96768H152.074V10.5694H149.229V5.69095H152.074V6.29262ZM154.741 10.5694H154.115V6.29262H152.749V5.69095H156.14V6.29262H154.741V10.5694ZM158.53 10.5694V5.69095H159.156V10.5694H158.53ZM161.937 10.5694H161.311V6.29262H159.945V5.69095H163.295V6.29262H161.937V10.5694ZM169.645 9.93516C169.169 10.4078 168.526 10.6732 167.856 10.6732C167.186 10.6732 166.543 10.4078 166.067 9.93516C165.605 9.44612 165.348 8.79885 165.348 8.12608C165.348 7.45332 165.605 6.80605 166.067 6.31701C166.302 6.08101 166.58 5.89371 166.887 5.76589C167.194 5.63807 167.523 5.57227 167.856 5.57227C168.189 5.57227 168.518 5.63807 168.825 5.76589C169.132 5.89371 169.41 6.08101 169.645 6.31701C170.109 6.80512 170.367 7.45274 170.367 8.12608C170.367 8.79943 170.109 9.44705 169.645 9.93516ZM166.531 9.52862C166.883 9.87916 167.359 10.076 167.856 10.076C168.353 10.076 168.829 9.87916 169.181 9.52862C169.529 9.14568 169.721 8.64717 169.721 8.13015C169.721 7.61313 169.529 7.11461 169.181 6.73167C168.829 6.38114 168.353 6.18434 167.856 6.18434C167.359 6.18434 166.883 6.38114 166.531 6.73167C166.183 7.11461 165.991 7.61313 165.991 8.13015C165.991 8.64717 166.183 9.14568 166.531 9.52862ZM171.246 10.5694V5.69095H172.011L174.385 9.48797V5.69095H175.011V10.5694H174.361L171.881 6.59345V10.5694H171.246Z" fill="white" stroke="white" stroke-width="0.162613" stroke-miterlimit="10"/>
<path d="M165.197 17.6838C164.514 17.687 163.848 17.8924 163.282 18.274C162.716 18.6557 162.275 19.1965 162.016 19.8281C161.757 20.4598 161.691 21.1541 161.826 21.8234C161.961 22.4926 162.292 23.1068 162.776 23.5884C163.26 24.0701 163.875 24.3976 164.545 24.5296C165.215 24.6616 165.909 24.5922 166.54 24.3302C167.17 24.0682 167.709 23.6253 168.088 23.0574C168.467 22.4895 168.669 21.822 168.669 21.1393C168.676 20.6823 168.59 20.2286 168.418 19.8053C168.246 19.382 167.99 18.9977 167.666 18.6753C167.342 18.3529 166.956 18.0989 166.532 17.9286C166.108 17.7583 165.654 17.675 165.197 17.6838ZM165.197 23.237C164.777 23.2664 164.358 23.1687 163.995 22.9568C163.631 22.7449 163.339 22.4285 163.158 22.0487C162.977 21.6689 162.914 21.2433 162.977 20.8272C163.041 20.4111 163.228 20.0238 163.515 19.7156C163.802 19.4075 164.174 19.1926 164.585 19.0991C164.995 19.0056 165.424 19.0377 165.816 19.1913C166.208 19.3448 166.545 19.6127 166.782 19.9601C167.02 20.3075 167.148 20.7184 167.149 21.1393C167.162 21.406 167.121 21.6726 167.03 21.9234C166.938 22.1743 166.797 22.4042 166.615 22.5997C166.433 22.7952 166.214 22.9523 165.971 23.0618C165.727 23.1712 165.464 23.2308 165.197 23.237ZM157.628 17.6838C156.944 17.6854 156.277 17.8894 155.71 18.2701C155.143 18.6507 154.701 19.191 154.441 19.8225C154.181 20.4541 154.113 21.1486 154.247 21.8184C154.382 22.4882 154.711 23.1031 155.195 23.5856C155.679 24.068 156.294 24.3963 156.964 24.529C157.635 24.6617 158.329 24.5928 158.96 24.331C159.591 24.0692 160.13 23.6263 160.509 23.0582C160.889 22.4902 161.091 21.8224 161.091 21.1393C161.098 20.6823 161.012 20.2286 160.84 19.8053C160.668 19.382 160.412 18.9977 160.088 18.6753C159.764 18.3529 159.379 18.0989 158.955 17.9286C158.53 17.7583 158.076 17.675 157.619 17.6838H157.628ZM157.628 23.237C157.207 23.268 156.788 23.1719 156.423 22.961C156.058 22.7502 155.766 22.4344 155.583 22.0549C155.4 21.6753 155.336 21.2496 155.399 20.833C155.461 20.4165 155.648 20.0284 155.934 19.7194C156.22 19.4104 156.593 19.1947 157.004 19.1005C157.414 19.0062 157.844 19.0377 158.236 19.1909C158.628 19.3441 158.966 19.6119 159.204 19.9594C159.442 20.3069 159.57 20.7181 159.571 21.1393C159.584 21.406 159.543 21.6726 159.452 21.9234C159.36 22.1743 159.219 22.4042 159.037 22.5997C158.856 22.7952 158.636 22.9523 158.393 23.0618C158.149 23.1712 157.886 23.2308 157.619 23.237H157.628ZM148.611 18.7489V20.2124H152.123C152.068 20.9017 151.781 21.5522 151.31 22.0581C150.959 22.416 150.536 22.6964 150.07 22.8813C149.604 23.0661 149.104 23.1513 148.602 23.1313C147.567 23.1313 146.575 22.7201 145.843 21.9882C145.111 21.2563 144.7 20.2637 144.7 19.2286C144.7 18.1935 145.111 17.2009 145.843 16.4689C146.575 15.737 147.567 15.3259 148.602 15.3259C149.593 15.3097 150.549 15.6869 151.261 16.3747L152.294 15.3421C151.813 14.8551 151.239 14.4696 150.606 14.2084C149.974 13.9473 149.295 13.8158 148.611 13.8217C147.888 13.7936 147.167 13.9116 146.491 14.1688C145.815 14.4261 145.197 14.8171 144.676 15.3186C144.155 15.82 143.74 16.4215 143.457 17.0871C143.173 17.7527 143.027 18.4686 143.027 19.192C143.027 19.9154 143.173 20.6313 143.457 21.2969C143.74 21.9625 144.155 22.564 144.676 23.0654C145.197 23.5669 145.815 23.9579 146.491 24.2152C147.167 24.4724 147.888 24.5904 148.611 24.5623C149.307 24.5938 150.001 24.4758 150.648 24.2163C151.294 23.9569 151.878 23.562 152.359 23.0581C153.211 22.1222 153.665 20.8919 153.627 19.627C153.63 19.3188 153.603 19.0111 153.546 18.7082L148.611 18.7489ZM185.451 19.8872C185.239 19.2633 184.842 18.7186 184.314 18.3251C183.785 17.9317 183.15 17.708 182.491 17.6838C182.046 17.6829 181.606 17.7733 181.198 17.9493C180.789 18.1253 180.421 18.3832 180.116 18.707C179.812 19.0309 179.576 19.4138 179.426 19.8322C179.275 20.2505 179.211 20.6954 179.239 21.1393C179.229 21.5937 179.311 22.0455 179.479 22.4676C179.648 22.8897 179.9 23.2735 180.22 23.596C180.541 23.9186 180.923 24.1733 181.343 24.3449C181.764 24.5165 182.215 24.6015 182.67 24.5948C183.239 24.5979 183.799 24.4599 184.302 24.1931C184.804 23.9263 185.232 23.5392 185.548 23.0663L184.369 22.2532C184.193 22.5465 183.944 22.7892 183.646 22.9573C183.348 23.1255 183.012 23.2135 182.67 23.2126C182.318 23.226 181.97 23.1332 181.671 22.9461C181.372 22.7591 181.137 22.4865 180.995 22.1638L185.621 20.2531L185.451 19.8872ZM180.735 21.0417C180.718 20.7902 180.752 20.538 180.834 20.2998C180.917 20.0615 181.046 19.8421 181.214 19.6543C181.382 19.4665 181.586 19.3142 181.813 19.2062C182.041 19.0982 182.288 19.0367 182.54 19.0253C182.802 19.008 183.064 19.0682 183.292 19.1983C183.52 19.3284 183.706 19.5227 183.825 19.7571L180.735 21.0417ZM176.979 24.3916H178.499V14.2282H176.979V24.3916ZM174.491 18.4562H174.434C174.204 18.2 173.924 17.9951 173.61 17.855C173.296 17.7149 172.956 17.6427 172.612 17.6431C171.724 17.6862 170.886 18.0695 170.272 18.7136C169.659 19.3577 169.316 20.2131 169.316 21.1027C169.316 21.9923 169.659 22.8478 170.272 23.4918C170.886 24.1359 171.724 24.5192 172.612 24.5623C172.957 24.5681 173.299 24.4983 173.613 24.3578C173.928 24.2174 174.208 24.0096 174.434 23.7492H174.482V24.2452C174.482 25.5705 173.775 26.2779 172.637 26.2779C172.258 26.269 171.89 26.1475 171.58 25.9289C171.27 25.7102 171.032 25.4044 170.897 25.0502L169.571 25.603C169.821 26.2099 170.246 26.7284 170.792 27.092C171.338 27.4556 171.981 27.6478 172.637 27.6438C174.417 27.6438 175.889 26.595 175.889 24.0419V17.887H174.491V18.4562ZM172.751 23.237C172.226 23.1908 171.738 22.9498 171.382 22.5615C171.027 22.1732 170.83 21.6658 170.83 21.1393C170.83 20.6128 171.027 20.1054 171.382 19.7171C171.738 19.3288 172.226 19.0878 172.751 19.0416C173.011 19.0549 173.265 19.1202 173.5 19.2335C173.734 19.3468 173.944 19.5059 174.116 19.7014C174.288 19.8969 174.419 20.1248 174.501 20.3718C174.584 20.6187 174.616 20.8797 174.596 21.1393C174.618 21.4 174.587 21.6626 174.505 21.911C174.423 22.1595 174.291 22.3887 174.118 22.5848C173.945 22.7808 173.734 22.9398 173.497 23.0519C173.261 23.164 173.004 23.227 172.742 23.237H172.751ZM192.573 14.2282H188.939V24.3916H190.459V20.5376H192.581C193.015 20.5688 193.45 20.5103 193.859 20.3658C194.269 20.2214 194.645 19.9941 194.963 19.6981C195.281 19.4021 195.534 19.0438 195.708 18.6455C195.881 18.2472 195.971 17.8174 195.971 17.3829C195.971 16.9485 195.881 16.5187 195.708 16.1204C195.534 15.722 195.281 15.3637 194.963 15.0677C194.645 14.7717 194.269 14.5444 193.859 14.4C193.45 14.2556 193.015 14.1971 192.581 14.2282H192.573ZM192.573 19.1066H190.451V15.643H192.606C193.068 15.643 193.512 15.8267 193.839 16.1538C194.166 16.4808 194.35 16.9244 194.35 17.387C194.35 17.8495 194.166 18.2931 193.839 18.6202C193.512 18.9473 193.068 19.131 192.606 19.131L192.573 19.1066ZM201.948 17.6431C201.394 17.61 200.843 17.7394 200.362 18.0153C199.881 18.2912 199.491 18.7016 199.24 19.1961L200.59 19.7571C200.723 19.5118 200.925 19.3105 201.17 19.1777C201.415 19.0449 201.694 18.9863 201.972 19.0091C202.165 18.9865 202.361 19.0026 202.547 19.0565C202.734 19.1103 202.908 19.2008 203.06 19.3227C203.211 19.4445 203.337 19.5953 203.429 19.7662C203.522 19.9371 203.579 20.1247 203.598 20.3181V20.4238C203.11 20.1652 202.565 20.0312 202.013 20.0335C200.557 20.0335 199.086 20.8466 199.086 22.3182C199.1 22.632 199.177 22.9398 199.313 23.2232C199.448 23.5067 199.639 23.7602 199.874 23.9686C200.109 24.1771 200.383 24.3363 200.681 24.4369C200.978 24.5374 201.293 24.5773 201.606 24.5542C201.989 24.5817 202.372 24.5056 202.716 24.3339C203.059 24.1622 203.35 23.9013 203.558 23.5785H203.606V24.3916H205.07V20.4807C205.07 18.7001 203.72 17.6675 201.988 17.6675L201.948 17.6431ZM201.761 23.2126C201.265 23.2126 200.574 22.9606 200.574 22.3508C200.574 21.5377 201.436 21.2694 202.2 21.2694C202.683 21.2575 203.16 21.3754 203.582 21.6109C203.531 22.0511 203.323 22.4581 202.996 22.7569C202.669 23.0557 202.244 23.2262 201.801 23.237L201.761 23.2126ZM210.404 17.887L208.664 22.2939H208.615L206.81 17.887H205.184L207.891 24.0501L206.346 27.4731H207.932L212.095 17.887H210.404ZM196.736 24.3916H198.256V14.2282H196.736V24.3916Z" fill="white"/>
<path d="M118.283 6.13138C118.018 6.44938 117.884 6.85647 117.909 7.26967V25.2547C117.884 25.6679 118.018 26.075 118.283 26.393L118.34 26.4499L128.414 16.3842V16.1484L118.34 6.07446L118.283 6.13138Z" fill="url(#paint0_linear_91_75)"/>
<path d="M131.748 19.7422L128.414 16.3842V16.1484L131.748 12.7823L131.821 12.823L135.813 15.0915C136.951 15.7338 136.951 16.7908 135.813 17.4412L131.837 19.7016L131.748 19.7422Z" fill="url(#paint1_linear_91_75)"/>
<path d="M131.845 19.693L128.414 16.2618L118.283 26.3927C118.515 26.5966 118.811 26.7131 119.12 26.722C119.429 26.7309 119.731 26.6317 119.975 26.4414L131.853 19.693" fill="url(#paint2_linear_91_75)"/>
<path d="M131.845 12.8284L119.966 6.07996C119.723 5.88972 119.421 5.79047 119.112 5.79938C118.803 5.80829 118.507 5.92479 118.275 6.12875L128.414 16.2596L131.845 12.8284Z" fill="url(#paint3_linear_91_75)"/>
<path opacity="0.2" d="M131.748 19.6188L119.966 26.3266C119.732 26.5021 119.446 26.5969 119.153 26.5969C118.86 26.5969 118.575 26.5021 118.34 26.3266L118.283 26.3835L118.34 26.4404C118.575 26.6172 118.86 26.7128 119.153 26.7128C119.447 26.7128 119.732 26.6172 119.966 26.4404L131.845 19.692L131.748 19.6188Z" fill="black"/>
<path opacity="0.12" d="M118.283 26.2788C118.018 25.9608 117.884 25.5537 117.909 25.1405V25.2625C117.884 25.6757 118.018 26.0828 118.283 26.4008L118.34 26.3439L118.283 26.2788ZM135.813 17.3188L131.747 19.6198L131.82 19.693L135.813 17.4327C136.039 17.3262 136.234 17.162 136.376 16.9564C136.519 16.7508 136.605 16.5113 136.626 16.2618C136.58 16.4884 136.483 16.7016 136.342 16.8848C136.201 17.068 136.02 17.2165 135.813 17.3188Z" fill="black"/>
<path opacity="0.25" d="M119.966 6.1965L135.812 15.2053C136.02 15.3076 136.201 15.4561 136.342 15.6393C136.483 15.8226 136.58 16.0357 136.625 16.2623C136.605 16.0129 136.519 15.7733 136.376 15.5677C136.233 15.3621 136.039 15.1979 135.812 15.0915L119.966 6.08267C118.827 5.44035 117.901 5.97698 117.901 7.27788V7.39984C117.925 6.09081 118.836 5.55418 119.966 6.1965Z" fill="white"/>
</g>
<defs>
<linearGradient id="paint0_linear_91_75" x1="127.519" y1="7.08267" x2="113.876" y2="20.7259" gradientUnits="userSpaceOnUse">
<stop stop-color="#00A0FF"/>
<stop offset="0.01" stop-color="#00A1FF"/>
<stop offset="0.26" stop-color="#00BEFF"/>
<stop offset="0.51" stop-color="#00D2FF"/>
<stop offset="0.76" stop-color="#00DFFF"/>
<stop offset="1" stop-color="#00E3FF"/>
</linearGradient>
<linearGradient id="paint1_linear_91_75" x1="137.301" y1="16.2623" x2="117.633" y2="16.2623" gradientUnits="userSpaceOnUse">
<stop stop-color="#FFE000"/>
<stop offset="0.41" stop-color="#FFBD00"/>
<stop offset="0.78" stop-color="#FFA500"/>
<stop offset="1" stop-color="#FF9C00"/>
</linearGradient>
<linearGradient id="paint2_linear_91_75" x1="129.983" y1="18.1319" x2="111.478" y2="36.6292" gradientUnits="userSpaceOnUse">
<stop stop-color="#FF3A44"/>
<stop offset="1" stop-color="#C31162"/>
</linearGradient>
<linearGradient id="paint3_linear_91_75" x1="115.73" y1="0.144573" x2="123.991" y2="8.40533" gradientUnits="userSpaceOnUse">
<stop stop-color="#32A071"/>
<stop offset="0.07" stop-color="#2DA771"/>
<stop offset="0.48" stop-color="#15CF74"/>
<stop offset="0.8" stop-color="#06E775"/>
<stop offset="1" stop-color="#00F076"/>
</linearGradient>
<clipPath id="clip0_91_75">
<rect width="97.2949" height="32.5227" fill="white" transform="translate(0.5)"/>
</clipPath>
<clipPath id="clip1_91_75">
<rect width="110.294" height="32.5227" fill="white" transform="translate(109.795)"/>
</clipPath>
</defs>
</svg>
