<svg width="98" height="20" viewBox="0 0 98 20" fill="none" xmlns="http://www.w3.org/2000/svg">
<rect x="0.104202" y="0.375977" width="19.5929" height="19.5929" rx="9.79646" fill="#CF3560"/>
<circle cx="10.1494" cy="5.88599" r="0.376713" fill="white"/>
<circle cx="11.0801" cy="5.88599" r="0.376713" fill="white"/>
<circle cx="12.0109" cy="5.88599" r="0.376713" fill="white"/>
<circle cx="12.9411" cy="5.88599" r="0.376713" fill="white"/>
<circle cx="13.8719" cy="5.88599" r="0.376713" fill="white"/>
<circle cx="9.21909" cy="5.88575" r="0.376713" fill="white"/>
<circle cx="13.8719" cy="9.60766" r="0.376713" transform="rotate(-90 13.8719 9.60766)" fill="white"/>
<circle cx="13.8719" cy="8.67749" r="0.376713" transform="rotate(-90 13.8719 8.67749)" fill="white"/>
<circle cx="13.8719" cy="7.74487" r="0.376713" transform="rotate(-90 13.8719 7.74487)" fill="white"/>
<circle cx="13.8719" cy="6.81469" r="0.376713" transform="rotate(-90 13.8719 6.81469)" fill="white"/>
<circle cx="13.8719" cy="10.5378" r="0.376713" transform="rotate(-90 13.8719 10.5378)" fill="white"/>
<circle cx="9.21845" cy="6.81275" r="0.376713" fill="white"/>
<circle cx="10.1492" cy="6.81275" r="0.376713" fill="white"/>
<circle cx="11.08" cy="6.81275" r="0.376713" fill="white"/>
<circle cx="12.0108" cy="6.81275" r="0.376713" fill="white"/>
<circle cx="12.9416" cy="6.81275" r="0.376713" fill="white"/>
<circle cx="8.28766" cy="6.81275" r="0.376713" fill="white"/>
<circle cx="12.9416" cy="10.5344" r="0.376713" transform="rotate(-90 12.9416 10.5344)" fill="white"/>
<circle cx="12.9416" cy="9.60424" r="0.376713" transform="rotate(-90 12.9416 9.60424)" fill="white"/>
<circle cx="12.9416" cy="8.67407" r="0.376713" transform="rotate(-90 12.9416 8.67407)" fill="white"/>
<circle cx="12.9416" cy="7.74145" r="0.376713" transform="rotate(-90 12.9416 7.74145)" fill="white"/>
<circle cx="12.9416" cy="11.4646" r="0.376713" transform="rotate(-90 12.9416 11.4646)" fill="white"/>
<g opacity="0.8">
<circle cx="8.28815" cy="7.74341" r="0.376713" fill="white"/>
<circle cx="9.21894" cy="7.74341" r="0.376713" fill="white"/>
<circle cx="10.1497" cy="7.74341" r="0.376713" fill="white"/>
<circle cx="11.0805" cy="7.74341" r="0.376713" fill="white"/>
<circle cx="12.0113" cy="7.74341" r="0.376713" fill="white"/>
<circle cx="7.35798" cy="7.74341" r="0.376713" fill="white"/>
<circle cx="12.0113" cy="11.4651" r="0.376713" transform="rotate(-90 12.0113 11.4651)" fill="white"/>
<circle cx="12.0113" cy="10.5349" r="0.376713" transform="rotate(-90 12.0113 10.5349)" fill="white"/>
<circle cx="12.0113" cy="9.60473" r="0.376713" transform="rotate(-90 12.0113 9.60473)" fill="white"/>
<circle cx="12.0113" cy="8.67456" r="0.376713" transform="rotate(-90 12.0113 8.67456)" fill="white"/>
<circle cx="12.0113" cy="12.3977" r="0.376713" transform="rotate(-90 12.0113 12.3977)" fill="white"/>
</g>
<g opacity="0.4">
<circle cx="6.42694" cy="9.60962" r="0.376713" fill="white"/>
<circle cx="7.35773" cy="9.60962" r="0.376713" fill="white"/>
<circle cx="8.28791" cy="9.60962" r="0.376713" fill="white"/>
<circle cx="9.21869" cy="9.60962" r="0.376713" fill="white"/>
<circle cx="10.1495" cy="9.60962" r="0.376713" fill="white"/>
<circle cx="5.49616" cy="9.60962" r="0.376713" fill="white"/>
<circle cx="10.1495" cy="13.3313" r="0.376713" transform="rotate(-90 10.1495 13.3313)" fill="white"/>
<circle cx="10.1495" cy="12.4011" r="0.376713" transform="rotate(-90 10.1495 12.4011)" fill="white"/>
<circle cx="10.1495" cy="11.4685" r="0.376713" transform="rotate(-90 10.1495 11.4685)" fill="white"/>
<circle cx="10.1495" cy="10.5383" r="0.376713" transform="rotate(-90 10.1495 10.5383)" fill="white"/>
<circle cx="10.1495" cy="14.2615" r="0.376713" transform="rotate(-90 10.1495 14.2615)" fill="white"/>
</g>
<g opacity="0.6">
<circle cx="7.35785" cy="8.67408" r="0.376713" fill="white"/>
<circle cx="8.28803" cy="8.67408" r="0.376713" fill="white"/>
<circle cx="9.21881" cy="8.67408" r="0.376713" fill="white"/>
<circle cx="10.1496" cy="8.67408" r="0.376713" fill="white"/>
<circle cx="11.0804" cy="8.67408" r="0.376713" fill="white"/>
<circle cx="6.42707" cy="8.67408" r="0.376713" fill="white"/>
<circle cx="11.0804" cy="12.3982" r="0.376713" transform="rotate(-90 11.0804 12.3982)" fill="white"/>
<circle cx="11.0804" cy="11.4656" r="0.376713" transform="rotate(-90 11.0804 11.4656)" fill="white"/>
<circle cx="11.0804" cy="10.5354" r="0.376713" transform="rotate(-90 11.0804 10.5354)" fill="white"/>
<circle cx="11.0804" cy="9.60522" r="0.376713" transform="rotate(-90 11.0804 9.60522)" fill="white"/>
<circle cx="11.0804" cy="13.3284" r="0.376713" transform="rotate(-90 11.0804 13.3284)" fill="white"/>
</g>
<g opacity="0.2">
<circle cx="5.49604" cy="10.5354" r="0.376713" fill="white"/>
<circle cx="6.42682" cy="10.5354" r="0.376713" fill="white"/>
<circle cx="7.35761" cy="10.5354" r="0.376713" fill="white"/>
<circle cx="8.28778" cy="10.5354" r="0.376713" fill="white"/>
<circle cx="9.21857" cy="10.5354" r="0.376713" fill="white"/>
<circle cx="4.5652" cy="10.5349" r="0.376713" fill="white"/>
<circle cx="9.21857" cy="14.2595" r="0.376713" transform="rotate(-90 9.21857 14.2595)" fill="white"/>
<circle cx="9.21857" cy="13.3293" r="0.376713" transform="rotate(-90 9.21857 13.3293)" fill="white"/>
<circle cx="9.21857" cy="12.3992" r="0.376713" transform="rotate(-90 9.21857 12.3992)" fill="white"/>
<circle cx="9.21857" cy="11.4665" r="0.376713" transform="rotate(-90 9.21857 11.4665)" fill="white"/>
<circle cx="9.21857" cy="15.1897" r="0.376713" transform="rotate(-90 9.21857 15.1897)" fill="white"/>
</g>
<g opacity="0.1">
<circle cx="4.56513" cy="11.4661" r="0.376713" fill="white"/>
<circle cx="5.49591" cy="11.4661" r="0.376713" fill="white"/>
<circle cx="6.4267" cy="11.4661" r="0.376713" fill="white"/>
<circle cx="7.35749" cy="11.4661" r="0.376713" fill="white"/>
<circle cx="8.28766" cy="11.4661" r="0.376713" fill="white"/>
<circle cx="3.63504" cy="11.4653" r="0.376713" fill="white"/>
<circle cx="8.28766" cy="15.1902" r="0.376713" transform="rotate(-90 8.28766 15.1902)" fill="white"/>
<circle cx="8.28766" cy="14.26" r="0.376713" transform="rotate(-90 8.28766 14.26)" fill="white"/>
<circle cx="8.28766" cy="13.3298" r="0.376713" transform="rotate(-90 8.28766 13.3298)" fill="white"/>
<circle cx="8.28766" cy="12.3997" r="0.376713" transform="rotate(-90 8.28766 12.3997)" fill="white"/>
<circle cx="8.28766" cy="16.1228" r="0.376713" transform="rotate(-90 8.28766 16.1228)" fill="white"/>
</g>
<path d="M26.7113 4.91782C27.5371 4.91782 28.1943 5.18747 28.6831 5.72676C29.1802 6.25763 29.4288 6.99073 29.4288 7.92608V12.0466H27.2801V8.21679C27.2801 7.74491 27.1579 7.37835 26.9135 7.11713C26.6691 6.85591 26.3405 6.7253 25.9276 6.7253C25.5147 6.7253 25.1861 6.85591 24.9417 7.11713C24.6973 7.37835 24.5752 7.74491 24.5752 8.21679V12.0466H22.4138V4.99366H24.5752V5.929C24.7943 5.61722 25.0892 5.37285 25.4599 5.19589C25.8307 5.01051 26.2478 4.91782 26.7113 4.91782ZM33.7005 12.1477C33.0095 12.1477 32.386 12.0003 31.8298 11.7054C31.2821 11.4104 30.8481 10.9891 30.5279 10.4414C30.2161 9.89366 30.0602 9.25325 30.0602 8.52014C30.0602 7.79546 30.2204 7.15926 30.5406 6.61154C30.8608 6.05539 31.2989 5.62986 31.8551 5.33493C32.4112 5.04 33.0348 4.89254 33.7258 4.89254C34.4167 4.89254 35.0403 5.04 35.5965 5.33493C36.1526 5.62986 36.5908 6.05539 36.911 6.61154C37.2312 7.15926 37.3913 7.79546 37.3913 8.52014C37.3913 9.24482 37.227 9.88524 36.8983 10.4414C36.5781 10.9891 36.1357 11.4104 35.5712 11.7054C35.015 12.0003 34.3915 12.1477 33.7005 12.1477ZM33.7005 10.2771C34.1134 10.2771 34.4631 10.1254 34.7496 9.82204C35.0445 9.51868 35.192 9.08472 35.192 8.52014C35.192 7.95557 35.0487 7.5216 34.7622 7.21825C34.4842 6.9149 34.1387 6.76322 33.7258 6.76322C33.3044 6.76322 32.9547 6.9149 32.6767 7.21825C32.3986 7.51318 32.2596 7.94714 32.2596 8.52014C32.2596 9.08472 32.3944 9.51868 32.664 9.82204C32.9421 10.1254 33.2876 10.2771 33.7005 10.2771Z" fill="#CF3560"/>
<path d="M39.7105 8.52039C39.7105 7.78728 39.858 7.14687 40.1529 6.59915C40.4562 6.05142 40.8733 5.6301 41.4042 5.33517C41.9435 5.04025 42.5586 4.89278 43.2496 4.89278C44.1344 4.89278 44.8717 5.12451 45.4616 5.58797C46.0599 6.05142 46.4517 6.70448 46.6371 7.54713H44.3366C44.1428 7.00783 43.7678 6.73818 43.2117 6.73818C42.8157 6.73818 42.4997 6.89407 42.2637 7.20585C42.0278 7.50921 41.9098 7.94739 41.9098 8.52039C41.9098 9.09339 42.0278 9.53578 42.2637 9.84756C42.4997 10.1509 42.8157 10.3026 43.2117 10.3026C43.7678 10.3026 44.1428 10.0329 44.3366 9.49365H46.6371C46.4517 10.3194 46.0599 10.9683 45.4616 11.4402C44.8633 11.9121 44.126 12.148 43.2496 12.148C42.5586 12.148 41.9435 12.0005 41.4042 11.7056C40.8733 11.4107 40.4562 10.9894 40.1529 10.4416C39.858 9.89391 39.7105 9.25349 39.7105 8.52039ZM50.5629 12.148C49.8719 12.148 49.2484 12.0005 48.6922 11.7056C48.1445 11.4107 47.7106 10.9894 47.3903 10.4416C47.0786 9.89391 46.9227 9.25349 46.9227 8.52039C46.9227 7.79571 47.0828 7.15951 47.403 6.61179C47.7232 6.05564 48.1614 5.6301 48.7175 5.33517C49.2737 5.04025 49.8972 4.89278 50.5882 4.89278C51.2792 4.89278 51.9027 5.04025 52.4589 5.33517C53.015 5.6301 53.4532 6.05564 53.7734 6.61179C54.0936 7.15951 54.2537 7.79571 54.2537 8.52039C54.2537 9.24507 54.0894 9.88548 53.7608 10.4416C53.4406 10.9894 52.9982 11.4107 52.4336 11.7056C51.8775 12.0005 51.2539 12.148 50.5629 12.148ZM50.5629 10.2773C50.9758 10.2773 51.3255 10.1256 51.612 9.82228C51.9069 9.51893 52.0544 9.08496 52.0544 8.52039C52.0544 7.95581 51.9112 7.52185 51.6247 7.21849C51.3466 6.91514 51.0011 6.76346 50.5882 6.76346C50.1669 6.76346 49.8172 6.91514 49.5391 7.21849C49.261 7.51342 49.122 7.94739 49.122 8.52039C49.122 9.08496 49.2568 9.51893 49.5265 9.82228C49.8045 10.1256 50.15 10.2773 50.5629 10.2773ZM54.5299 8.50775C54.5299 7.78307 54.6647 7.14687 54.9343 6.59915C55.2124 6.05142 55.5874 5.6301 56.0593 5.33517C56.5311 5.04025 57.0578 4.89278 57.6392 4.89278C58.1027 4.89278 58.524 4.98969 58.9032 5.1835C59.2908 5.37731 59.5942 5.63853 59.8133 5.96716V2.69347H61.9747V12.0469H59.8133V11.0357C59.611 11.3728 59.3203 11.6424 58.9411 11.8446C58.5704 12.0469 58.1364 12.148 57.6392 12.148C57.0578 12.148 56.5311 12.0005 56.0593 11.7056C55.5874 11.4022 55.2124 10.9767 54.9343 10.429C54.6647 9.87284 54.5299 9.23243 54.5299 8.50775ZM59.8133 8.52039C59.8133 7.98109 59.6616 7.55555 59.3582 7.24377C59.0633 6.93199 58.701 6.7761 58.2712 6.7761C57.8415 6.7761 57.4749 6.93199 57.1716 7.24377C56.8766 7.54713 56.7292 7.96845 56.7292 8.50775C56.7292 9.04704 56.8766 9.47679 57.1716 9.797C57.4749 10.1088 57.8415 10.2647 58.2712 10.2647C58.701 10.2647 59.0633 10.1088 59.3582 9.797C59.6616 9.48522 59.8133 9.05968 59.8133 8.52039ZM69.7461 8.40663C69.7461 8.60887 69.7334 8.81953 69.7081 9.03862H64.8166C64.8503 9.47679 64.9893 9.81385 65.2337 10.0498C65.4865 10.2773 65.794 10.3911 66.1564 10.3911C66.6957 10.3911 67.0706 10.1636 67.2813 9.70852H69.5817C69.4638 10.172 69.2489 10.5891 68.9371 10.9599C68.6338 11.3306 68.2504 11.6213 67.7869 11.832C67.3234 12.0427 66.8052 12.148 66.2322 12.148C65.5412 12.148 64.9261 12.0005 64.3868 11.7056C63.8475 11.4107 63.4262 10.9894 63.1228 10.4416C62.8195 9.89391 62.6678 9.25349 62.6678 8.52039C62.6678 7.78728 62.8153 7.14687 63.1102 6.59915C63.4135 6.05142 63.8349 5.6301 64.3742 5.33517C64.9135 5.04025 65.5328 4.89278 66.2322 4.89278C66.9148 4.89278 67.5215 5.03603 68.0523 5.32253C68.5832 5.60903 68.9961 6.01772 69.291 6.54859C69.5944 7.07946 69.7461 7.6988 69.7461 8.40663ZM67.5341 7.83784C67.5341 7.46708 67.4077 7.17215 67.1549 6.95306C66.9021 6.73397 66.5861 6.62443 66.2069 6.62443C65.8446 6.62443 65.537 6.72976 65.2842 6.94042C65.0399 7.15108 64.8882 7.45022 64.8292 7.83784H67.5341Z" fill="#CF3560"/>
<path d="M72.2856 8.50775C72.2856 7.78307 72.4204 7.14687 72.69 6.59915C72.9681 6.05142 73.3431 5.6301 73.815 5.33517C74.2869 5.04025 74.8135 4.89278 75.3949 4.89278C75.8921 4.89278 76.3261 4.9939 76.6968 5.19614C77.076 5.39837 77.3667 5.66381 77.569 5.99244V4.9939H79.7304V12.0469H77.569V11.0483C77.3583 11.377 77.0634 11.6424 76.6842 11.8446C76.3134 12.0469 75.8795 12.148 75.3823 12.148C74.8093 12.148 74.2869 12.0005 73.815 11.7056C73.3431 11.4022 72.9681 10.9767 72.69 10.429C72.4204 9.87284 72.2856 9.23243 72.2856 8.50775ZM77.569 8.52039C77.569 7.98109 77.4173 7.55555 77.1139 7.24377C76.819 6.93199 76.4567 6.7761 76.0269 6.7761C75.5972 6.7761 75.2306 6.93199 74.9273 7.24377C74.6323 7.54713 74.4849 7.96845 74.4849 8.50775C74.4849 9.04704 74.6323 9.47679 74.9273 9.797C75.2306 10.1088 75.5972 10.2647 76.0269 10.2647C76.4567 10.2647 76.819 10.1088 77.1139 9.797C77.4173 9.48522 77.569 9.05968 77.569 8.52039ZM83.0147 5.99244C83.2253 5.66381 83.516 5.39837 83.8868 5.19614C84.2576 4.9939 84.6915 4.89278 85.1887 4.89278C85.7701 4.89278 86.2968 5.04025 86.7687 5.33517C87.2405 5.6301 87.6113 6.05142 87.881 6.59915C88.159 7.14687 88.2981 7.78307 88.2981 8.50775C88.2981 9.23243 88.159 9.87284 87.881 10.429C87.6113 10.9767 87.2405 11.4022 86.7687 11.7056C86.2968 12.0005 85.7701 12.148 85.1887 12.148C84.7 12.148 84.266 12.0469 83.8868 11.8446C83.516 11.6424 83.2253 11.3812 83.0147 11.061V15.409H80.8533V4.9939H83.0147V5.99244ZM86.0988 8.50775C86.0988 7.96845 85.9471 7.54713 85.6437 7.24377C85.3488 6.93199 84.9822 6.7761 84.5441 6.7761C84.1143 6.7761 83.7478 6.93199 83.4444 7.24377C83.1495 7.55555 83.002 7.98109 83.002 8.52039C83.002 9.05968 83.1495 9.48522 83.4444 9.797C83.7478 10.1088 84.1143 10.2647 84.5441 10.2647C84.9738 10.2647 85.3404 10.1088 85.6437 9.797C85.9471 9.47679 86.0988 9.04704 86.0988 8.50775ZM91.1526 5.99244C91.3633 5.66381 91.654 5.39837 92.0247 5.19614C92.3955 4.9939 92.8295 4.89278 93.3266 4.89278C93.9081 4.89278 94.4347 5.04025 94.9066 5.33517C95.3785 5.6301 95.7493 6.05142 96.0189 6.59915C96.297 7.14687 96.436 7.78307 96.436 8.50775C96.436 9.23243 96.297 9.87284 96.0189 10.429C95.7493 10.9767 95.3785 11.4022 94.9066 11.7056C94.4347 12.0005 93.9081 12.148 93.3266 12.148C92.8379 12.148 92.4039 12.0469 92.0247 11.8446C91.654 11.6424 91.3633 11.3812 91.1526 11.061V15.409H88.9912V4.9939H91.1526V5.99244ZM94.2367 8.50775C94.2367 7.96845 94.085 7.54713 93.7817 7.24377C93.4867 6.93199 93.1202 6.7761 92.682 6.7761C92.2523 6.7761 91.8857 6.93199 91.5824 7.24377C91.2874 7.55555 91.14 7.98109 91.14 8.52039C91.14 9.05968 91.2874 9.48522 91.5824 9.797C91.8857 10.1088 92.2523 10.2647 92.682 10.2647C93.1118 10.2647 93.4783 10.1088 93.7817 9.797C94.085 9.47679 94.2367 9.04704 94.2367 8.50775Z" fill="#CF3560"/>
<path d="M53.2612 16.4122C53.2612 15.9308 53.3575 15.5087 53.5501 15.1462C53.7483 14.778 54.0202 14.4948 54.3658 14.2965C54.7113 14.0983 55.1078 13.9992 55.5553 13.9992C56.1217 13.9992 56.5891 14.1351 56.9573 14.407C57.3311 14.6732 57.5832 15.0556 57.7135 15.5541H56.6684C56.5834 15.3218 56.4475 15.1406 56.2605 15.0103C56.0736 14.88 55.8385 14.8148 55.5553 14.8148C55.1588 14.8148 54.8416 14.9565 54.6037 15.2397C54.3714 15.5172 54.2553 15.9081 54.2553 16.4122C54.2553 16.9164 54.3714 17.3101 54.6037 17.5933C54.8416 17.8765 55.1588 18.0181 55.5553 18.0181C56.1161 18.0181 56.4871 17.7717 56.6684 17.2789H57.7135C57.5775 17.7547 57.3226 18.1342 56.9488 18.4175C56.5749 18.695 56.1104 18.8338 55.5553 18.8338C55.1078 18.8338 54.7113 18.7347 54.3658 18.5364C54.0202 18.3325 53.7483 18.0493 53.5501 17.6867C53.3575 17.3185 53.2612 16.8937 53.2612 16.4122ZM62.8633 16.3018C62.8633 16.4774 62.8519 16.636 62.8293 16.7776H59.2522C59.2805 17.1514 59.4193 17.4517 59.6685 17.6782C59.9177 17.9048 60.2236 18.0181 60.5862 18.0181C61.1073 18.0181 61.4755 17.8 61.6907 17.3639H62.7358C62.5942 17.7944 62.3365 18.1484 61.9626 18.426C61.5944 18.6978 61.1356 18.8338 60.5862 18.8338C60.1387 18.8338 59.7365 18.7347 59.3796 18.5364C59.0284 18.3325 58.7509 18.0493 58.5469 17.6867C58.3487 17.3185 58.2496 16.8937 58.2496 16.4122C58.2496 15.9308 58.3459 15.5087 58.5384 15.1462C58.7367 14.778 59.0114 14.4948 59.3626 14.2965C59.7195 14.0983 60.1273 13.9992 60.5862 13.9992C61.028 13.9992 61.4217 14.0955 61.7672 14.2881C62.1127 14.4806 62.3818 14.7525 62.5744 15.1037C62.767 15.4493 62.8633 15.8486 62.8633 16.3018ZM61.8522 15.9959C61.8465 15.639 61.7191 15.353 61.4698 15.1377C61.2206 14.9225 60.9119 14.8148 60.5437 14.8148C60.2095 14.8148 59.9234 14.9225 59.6855 15.1377C59.4476 15.3473 59.306 15.6334 59.2607 15.9959H61.8522ZM66.0723 13.9992C66.4404 13.9992 66.769 14.0756 67.0579 14.2286C67.3524 14.3815 67.5818 14.6081 67.7461 14.9083C67.9104 15.2085 67.9925 15.5711 67.9925 15.9959V18.7573H67.0324V16.1403C67.0324 15.7212 66.9276 15.4011 66.718 15.1802C66.5084 14.9536 66.2224 14.8403 65.8598 14.8403C65.4973 14.8403 65.2084 14.9536 64.9932 15.1802C64.7836 15.4011 64.6788 15.7212 64.6788 16.1403V18.7573H63.7102V14.0756H64.6788V14.6109C64.8374 14.4183 65.0385 14.2682 65.2821 14.1606C65.5313 14.053 65.7947 13.9992 66.0723 13.9992ZM70.2518 14.8658V17.4573C70.2518 17.6329 70.2914 17.7604 70.3707 17.8397C70.4557 17.9133 70.5973 17.9501 70.7956 17.9501H71.3903V18.7573H70.6256C70.1895 18.7573 69.8553 18.6554 69.623 18.4514C69.3908 18.2475 69.2747 17.9161 69.2747 17.4573V14.8658H68.7224V14.0756H69.2747V12.9116H70.2518V14.0756H71.3903V14.8658H70.2518ZM76.4676 16.3018C76.4676 16.4774 76.4563 16.636 76.4336 16.7776H72.8565C72.8848 17.1514 73.0236 17.4517 73.2728 17.6782C73.5221 17.9048 73.8279 18.0181 74.1905 18.0181C74.7116 18.0181 75.0798 17.8 75.295 17.3639H76.3401C76.1985 17.7944 75.9408 18.1484 75.5669 18.426C75.1988 18.6978 74.7399 18.8338 74.1905 18.8338C73.743 18.8338 73.3408 18.7347 72.9839 18.5364C72.6327 18.3325 72.3552 18.0493 72.1513 17.6867C71.953 17.3185 71.8539 16.8937 71.8539 16.4122C71.8539 15.9308 71.9502 15.5087 72.1428 15.1462C72.341 14.778 72.6157 14.4948 72.9669 14.2965C73.3238 14.0983 73.7317 13.9992 74.1905 13.9992C74.6323 13.9992 75.026 14.0955 75.3715 14.2881C75.7171 14.4806 75.9861 14.7525 76.1787 15.1037C76.3713 15.4493 76.4676 15.8486 76.4676 16.3018ZM75.4565 15.9959C75.4508 15.639 75.3234 15.353 75.0741 15.1377C74.8249 14.9225 74.5162 14.8148 74.148 14.8148C73.8138 14.8148 73.5277 14.9225 73.2898 15.1377C73.0519 15.3473 72.9103 15.6334 72.865 15.9959H75.4565ZM78.2831 14.7554C78.4247 14.5175 78.6116 14.3334 78.8439 14.2031C79.0818 14.0671 79.3622 13.9992 79.6851 13.9992V15.0018H79.4387C79.0591 15.0018 78.7703 15.0981 78.572 15.2907C78.3794 15.4833 78.2831 15.8175 78.2831 16.2933V18.7573H77.3145V14.0756H78.2831V14.7554Z" fill="#CF3560"/>
</svg>
